<svg xmlns="http://www.w3.org/2000/svg" width="36" height="40.031" viewBox="0 0 36 40.031">
  <metadata><?xpacket begin="﻿" id="W5M0MpCehiHzreSzNTczkc9d"?>
<x:xmpmeta xmlns:x="adobe:ns:meta/" x:xmptk="Adobe XMP Core 5.6-c138 79.159824, 2016/09/14-01:09:01        ">
   <rdf:RDF xmlns:rdf="http://www.w3.org/1999/02/22-rdf-syntax-ns#">
      <rdf:Description rdf:about=""/>
   </rdf:RDF>
</x:xmpmeta>
                                                                                                    
                                                                                                    
                                                                                                    
                                                                                                    
                                                                                                    
                                                                                                    
                                                                                                    
                                                                                                    
                                                                                                    
                                                                                                    
                                                                                                    
                                                                                                    
                                                                                                    
                                                                                                    
                                                                                                    
                                                                                                    
                                                                                                    
                                                                                                    
                                                                                                    
                                                                                                    
                           
<?xpacket end="w"?></metadata>
<defs>
    <style>
      .cls-1 {
        fill: #7385fe;
        fill-rule: evenodd;
      }
    </style>
  </defs>
  <path id="student" class="cls-1" d="M24,519c0-8.333,12-11,12-11l2,4,2-3h4l1,3a49.971,49.971,0,0,0,3-4c12,3.083,12,11,12,11S24,519.083,24,519Zm26-21a8.76,8.76,0,0,1-8.5,9,8.76,8.76,0,0,1-8.5-9,9.378,9.378,0,0,1,1-4.233V492l1.356-.209a8.648,8.648,0,0,1,1.458-1.272l0.117-.156C35.156,490.673,34,491,34,491v-2c5.875-6.125,16-1,16-1v3a15.191,15.191,0,0,0-2.894-.823l0.776,1.294L50,492a11.115,11.115,0,0,1-.188,2.687L50,495H49.715a1.829,1.829,0,0,1-.136.292A9.355,9.355,0,0,1,50,498Zm-8.5,8a7.762,7.762,0,0,0,7.5-8,8.469,8.469,0,0,0-.367-2.467A2.564,2.564,0,0,1,48,495c-2.312-2.563-3-.125-6,0a22.984,22.984,0,0,0-7,2s-0.262.245-.827-0.7A8.533,8.533,0,0,0,34,498,7.762,7.762,0,0,0,41.5,506Zm3.73-16.078c0.167,0.087.332,0.177,0.492,0.274l0.782-.12C46.082,490.011,45.656,489.962,45.23,489.922Zm-3.093.112,2.112,0.528A7.085,7.085,0,0,0,42.137,490.034ZM29,499V489h2v10H29Zm23-10c-11.187-10.188-20,0-20,0l-3-3,13-7,13,7S51.875,489.063,52,489Z" transform="translate(-24 -479)"/>
</svg>
