<svg xmlns="http://www.w3.org/2000/svg" width="36" height="35.031" viewBox="0 0 36 35.031">
  <metadata><?xpacket begin="﻿" id="W5M0MpCehiHzreSzNTczkc9d"?>
<x:xmpmeta xmlns:x="adobe:ns:meta/" x:xmptk="Adobe XMP Core 5.6-c138 79.159824, 2016/09/14-01:09:01        ">
   <rdf:RDF xmlns:rdf="http://www.w3.org/1999/02/22-rdf-syntax-ns#">
      <rdf:Description rdf:about=""/>
   </rdf:RDF>
</x:xmpmeta>
                                                                                                    
                                                                                                    
                                                                                                    
                                                                                                    
                                                                                                    
                                                                                                    
                                                                                                    
                                                                                                    
                                                                                                    
                                                                                                    
                                                                                                    
                                                                                                    
                                                                                                    
                                                                                                    
                                                                                                    
                                                                                                    
                                                                                                    
                                                                                                    
                                                                                                    
                                                                                                    
                           
<?xpacket end="w"?></metadata>
<defs>
    <style>
      .cls-1 {
        fill: #fe9f41;
        fill-rule: evenodd;
      }
    </style>
  </defs>
  <path id="teacher" class="cls-1" d="M58,425s-24.75.083-32,0c-7.917-4.083,9-14,9-14s4.083,9.167,4,9a11.8,11.8,0,0,1,2-7,2.007,2.007,0,0,1,2,0c2.417,5.333,2,7,2,7l5-9C65.75,421,58,425,58,425ZM42.5,411c-5.247,0-9.5-4.7-9.5-10.5a11.665,11.665,0,0,1,.076-1.266C31.808,395.02,36,390,36,390H47a9.263,9.263,0,0,1,4.383,6.8A11.44,11.44,0,0,1,52,400.5C52,406.3,47.747,411,42.5,411ZM50,401H48v-4c-1.917-3-6-1-6-1l-6,1v3l-0.188.188A1.464,1.464,0,0,1,36.5,400h3a1.5,1.5,0,0,1,0,3h-3a1.5,1.5,0,0,1-1.5-1.5,1.46,1.46,0,0,1,.188-0.688L35,401a4.361,4.361,0,0,1-.977,0c0.236,5.011,3.935,9,8.477,9,4.268,0,7.792-3.52,8.4-8.1Zm-6.5,2a1.5,1.5,0,0,1,0-3h3a1.5,1.5,0,0,1,0,3h-3Z" transform="translate(-23.906 -390)"/>
</svg>
