<svg xmlns="http://www.w3.org/2000/svg" width="36" height="32" viewBox="0 0 36 32">
  <metadata><?xpacket begin="﻿" id="W5M0MpCehiHzreSzNTczkc9d"?>
<x:xmpmeta xmlns:x="adobe:ns:meta/" x:xmptk="Adobe XMP Core 5.6-c138 79.159824, 2016/09/14-01:09:01        ">
   <rdf:RDF xmlns:rdf="http://www.w3.org/1999/02/22-rdf-syntax-ns#">
      <rdf:Description rdf:about=""/>
   </rdf:RDF>
</x:xmpmeta>
                                                                                                    
                                                                                                    
                                                                                                    
                                                                                                    
                                                                                                    
                                                                                                    
                                                                                                    
                                                                                                    
                                                                                                    
                                                                                                    
                                                                                                    
                                                                                                    
                                                                                                    
                                                                                                    
                                                                                                    
                                                                                                    
                                                                                                    
                                                                                                    
                                                                                                    
                                                                                                    
                           
<?xpacket end="w"?></metadata>
<defs>
    <style>
      .cls-1 {
        fill: #42a3f5;
        fill-rule: evenodd;
      }
    </style>
  </defs>
  <path id="resource" class="cls-1" d="M24,429v-2H60v2H24Zm32-11a4,4,0,0,0-4-4H32a4,4,0,0,0-4,4v7H26v-9a4,4,0,0,1,4-4H54a4,4,0,0,1,4,4v9H56v-7ZM28,438a4,4,0,0,0,4,4H52a4,4,0,0,0,4-4v-7h2v9a4,4,0,0,1-4,4H30a4,4,0,0,1-4-4v-9h2v7Z" transform="translate(-24 -412)"/>
</svg>
