<svg xmlns="http://www.w3.org/2000/svg" width="36" height="30" viewBox="0 0 36 30">
  <metadata><?xpacket begin="﻿" id="W5M0MpCehiHzreSzNTczkc9d"?>
<x:xmpmeta xmlns:x="adobe:ns:meta/" x:xmptk="Adobe XMP Core 5.6-c138 79.159824, 2016/09/14-01:09:01        ">
   <rdf:RDF xmlns:rdf="http://www.w3.org/1999/02/22-rdf-syntax-ns#">
      <rdf:Description rdf:about=""/>
   </rdf:RDF>
</x:xmpmeta>
                                                                                                    
                                                                                                    
                                                                                                    
                                                                                                    
                                                                                                    
                                                                                                    
                                                                                                    
                                                                                                    
                                                                                                    
                                                                                                    
                                                                                                    
                                                                                                    
                                                                                                    
                                                                                                    
                                                                                                    
                                                                                                    
                                                                                                    
                                                                                                    
                                                                                                    
                                                                                                    
                           
<?xpacket end="w"?></metadata>
<defs>
    <style>
      .cls-1 {
        fill: #42a3f5;
        fill-rule: evenodd;
      }
    </style>
  </defs>
  <path id="class" class="cls-1" d="M60,330c0,0.338-.025.669-0.05,1h-2c0.03-.33.05-0.662,0.05-1a11,11,0,0,0-10-10.95V316.9a6.966,6.966,0,0,0,0-13.8v-2.042a8.993,8.993,0,0,1,3.469,16.746A12.993,12.993,0,0,1,60,330Zm-10,0c0,0.338-.025.669-0.05,1h-2c0.03-.33.05-0.662,0.05-1a11,11,0,0,0-22,0c0,0.338.021,0.67,0.05,1h-2c-0.025-.331-0.05-0.662-0.05-1a12.993,12.993,0,0,1,8.531-12.195,9,9,0,1,1,8.937,0A12.993,12.993,0,0,1,50,330Zm-6-20a7,7,0,1,0-7,7A7,7,0,0,0,44,310Z" transform="translate(-24 -301)"/>
</svg>
